<svg xmlns="http://www.w3.org/2000/svg" viewBox="0 0 1080 1350"><defs><style>.cls-1{fill:none;}</style></defs><g id="Layer_2" data-name="Layer 2"><g id="Layer_1-2" data-name="Layer 1"><rect class="cls-1" width="1080" height="1350"/><path d="M898.86,1124.55c-.18-12.71-1.54-42.5-1.91-56.66s-1.72-37.06-1.9-49.59-.37-53-1.09-65.38,1.18-28.06.81-39-.36-39.23.18-48.68-.72-36.78-.18-49.67-.45-44-.27-53.58,1.82-39.87,2.18-49.68-.73-30.42-.18-43,2.09-59.21,1.54-72.29.46-52.67-.81-64.29-1.82-60.21-1.64-60.76c.06-.17-1.27-1.72-8.17-1.36-10.32.55-30.21-.31-37.6.18-10.9.73-83.55.19-83.55.19s-4.17-22-6.54-33.61-8.35-38.86-11.26-51.58-15.25-58.3-17.61-65-13.26-46.49-15.44-54.49-10-35.23-11.08-42.5-3.45-23.06-4.72-32.33-2.73-20-4.18-28.69-5.81-28.52-7.81-38-5.2-19.76-17.07-34.15-42.14-28.51-56.67-34.69S581,37.53,554.86,37c-37.05-.77-62.48,6.36-84.45,12.9s-61,30.51-79.74,41.95-36.14,18.89-44.5,54.13-19.43,126.41-19.43,126.41-16.89,94.08-19.07,116.06S299.86,474,299.86,474s-50.49,0-68.84-.91-37.05-1.27-42.86-.9S180,474.7,180,474.7l1.27,121.51,1.36,154.56s-2.45,131-1.91,159.37-1.63,157.75-3,178.72.81,45.23,0,55.85-.55,44.41-.28,76.56,1.37,43.77,1.82,49.49,3.54,18,7.63,18c6.72,0,32.69.73,51.22.55s64.29-.18,92.63.18,67.38.91,80.09.91,38.87-.18,63.75.18,51.95-.18,74.47-.36c19.8-.16,128.77-.55,146-.55s107.7-.18,124.95-.18,54.67-.73,61-.91,15.08-6.17,16-19.07c0,0,1.09-25.61,1.46-44.32s.9-44.13.9-54.85S899,1137.27,898.86,1124.55ZM668.74,472c-8.17,0-47.59,1.64-65.2,1.28s-91.18-.73-109.16-.55-97.35.18-105,0-26.88-.18-26.88-.18,3.27-22.52,4.54-31.79,4.54-32.51,7.27-42.86A281.16,281.16,0,0,0,380,369.54c1.45-9.08,5.44-28.88,7.08-36.33s2.36-14.35,4.18-21.61,5.26-20.71,5.81-24,1.45-12.71,2.72-16.16,2.55-13.26,3.27-18.34,3.27-17.62,5.09-26.16,6-33.78,7.63-41.77,3.45-20.71,5.08-29.61,3.63-22.34,5.45-30.69,5.81-27.79,5.81-27.79,31.24-5.09,38.51-6.18,22.34-3.08,22.88-3.08,46.68,2,58.12,3.27,26,3.08,33.78,3.63,20.35,2.36,22.71,4.18,4.9,6.53,6.9,9.44,10.35,15.26,14,21.43,11.27,29.06,12.35,35.24,4.55,24.52,7.45,33.42,9.08,23.43,10.17,27.78,7.63,39.78,8.36,46.32,2.9,20.52,3.81,27.79,6.72,51.4,7.63,58.66,8.17,50.86,10.72,66.84,5.08,46.32,5.08,46.32S676.91,472,668.74,472Z"/></g></g></svg>