<?xml version="1.0" encoding="utf-8"?>
<!-- Generator: Adobe Illustrator 27.4.1, SVG Export Plug-In . SVG Version: 6.00 Build 0)  -->
<svg version="1.1" id="Layer_1" xmlns="http://www.w3.org/2000/svg" xmlns:xlink="http://www.w3.org/1999/xlink" x="0px" y="0px"
	 viewBox="0 0 2000 2500" style="enable-background:new 0 0 2000 2500;" xml:space="preserve">
<style type="text/css">
	.st0{fill:none;}
	.st1{fill:#1a1a1a;}
</style>
<g id="Layer_2_00000017496323171280883470000017219769400578225042_">
	<g id="Layer_1-2">
		<rect class="st0" width="2000" height="2500"/>
		<path id="color" class="st1" d="M423.6,2317.5c-0.6,11,1.8,32,17.8,28.8c0,0,18.4,0.1,36.6,0.5c18.2,0.4,55.1-2.9,66.8-3.5
			c11.6-0.6,66.5-4.2,84.6-5.7c21.7-2.3,43.5-3.3,65.3-3c28.9,0.6,77.5,2.4,96.5,3c19.1,0.6,64.7,0.9,84-0.3
			c19.4-1.2,74.8-7.1,124.3-7.8s96.2-0.3,121.3,4.8c28.3,6.1,57.2,9.1,86.1,9c44.4,0.9,101.9,1.7,134.7,3.5
			c32.8,1.8,115.5,11.2,135,15c19.1,3.7,60.2,10.1,78.7,9.8c17.2-0.2,29.8,4.8,31.9,3c2.1-1.8,1.6-12.5,2.4-20
			c1.7-14.1,1.7-28.3,0-42.3c-1.6-21.6,2-44.2,4.9-68c2.9-23.8,3.1-46.9,7.2-69.3c5-27.4,11.2-57.9,13-82.3
			c1.8-24.4,6.5-94.5,7.8-119.6c1.3-25.1-1.1-92.7-2.9-122.5c-1.8-29.8-0.7-41.7,2.9-57.7c4.1-23,5.8-46.4,5-69.8
			c-0.8-21.8-2.9-43.1-4.3-68.4c-1.4-25.3-6.7-56.1-7.9-83.2c-1.1-27.1,2.5-74.9,2.5-86c0-11-14.8-91.8-17.3-106.3
			c-2.5-14.6-1.8-39.5-2.9-54.1c-1.1-14.6-3.1-33.7-2.7-45.8c4.1,5.8,7.6,12,10.5,18.4c3.1,7.9,11.5,31.9,15.3,39
			c3.8,7.2,1.1,16.2,9,26.5s13,16.4,15.7,19.7s8.5-0.8,13.7-4.8c5.2-4,12.5-17.8,17.6-22.4c5-4.4,22.1-17.2,35.5-28.5
			s40.5-36.3,46.7-45.2c6.4-7.2,10.3-12.3,7.6-27.3c11.5-9.9,22.2-17.4,35.2-25.3c21.1-12.6,29.5-18.1,37.2-20.8
			c7.6-2.7,35.8-9.8,48.1-17.8c12.3-8.1,28-22,26.9-28.7c-1.1-6.8-29.4-39-35.9-48.5c-6.5-9.4-43.3-70.4-55.6-91.8
			c-12.3-21.3-75.6-145.6-75.6-145.6s-48.2-105.7-58.3-122.9s-33.4-59.7-42.6-75.2c-5.2-9.4-11.6-18.1-19.1-25.8
			c-4.7-4.9-20.2-22.2-29.6-31c-9.4-8.8-76.9-43.3-91.3-49.8c-14.4-6.5-159.3-75.9-170-82.6c-10.8-6.7-11.4-4.9-11.4-4.9
			s-40.8-24.7-45.5-26.7c-3.8-0.9-7.8-0.4-11.2,1.6c0,0-158.6,26.5-180.4,29.2s-144.3,1.6-171.5,0.2s-108.6-26.1-108.6-26.1
			s-50-15-50-15.7s3.4-6.6,1.1-7.1c-13.9,0.8-33.4,12.8-45.8,21c-6.8-1.1-10.3,0.6-15.5,3.8c-4.5,2.7-77.9,42.2-98.1,51.2
			c-20.2,9-114.5,61.2-156.2,85.2c-41.7,24-61.7,43.8-70,53.8s-34.1,59.5-46.4,82.2s-58.5,107.7-74.5,141.6
			c-15.9,33.9-79.3,158.2-97,196.1s-54.1,111.9-54.1,112.6c0,2.2,24.8,20.8,31.6,26.2c6.8,5.4,88.8,71.1,103.4,82.2
			c14.6,11.2,80.7,56.5,89.1,61.7c13.7,8.5,51.4,33.6,59,32.3c7.6-1.3,13.2-9.2,15.9-13.5c2.7-3.3,6.1-9.2,9.8-11.3
			c-0.6,26.1,0.7,53.6,4,79.6c5.5,49.6,3.8,52.2,3.6,54.9c-3.9,12.1-4.2,21.5-5.4,34.1c-2.5,24.3-2.3,27.1-3.6,35.6
			c-3.2,26.8-1.8,62,0,88.9c2.9,28.5,7.2,79.4,7.7,93.1c0.5,13.7,4.2,104.4,5.3,141.4c1.1,37,6.7,93.6,5.6,130.6
			c-1.1,37-4.5,111.1-4,139.1c0.5,28,6.3,54.1,5.8,82.1c-0.4,28-0.6,37.1-1.5,45.6S424.2,2306.5,423.6,2317.5z"/>
	</g>
</g>
</svg>
