<?xml version="1.0" encoding="utf-8"?>
<!-- Generator: Adobe Illustrator 27.6.1, SVG Export Plug-In . SVG Version: 6.00 Build 0)  -->
<svg version="1.1" id="Layer_1" xmlns="http://www.w3.org/2000/svg" xmlns:xlink="http://www.w3.org/1999/xlink" x="0px" y="0px"
	 viewBox="0 0 40 40" style="enable-background:new 0 0 40 40;" xml:space="preserve">
<style type="text/css">
	.st0{fill:none;stroke:#FF404B;stroke-linecap:round;stroke-linejoin:round;stroke-miterlimit:10;}
	.st1{fill:#FF404B;}
</style>
<g>
	<g>
		<polyline class="st0" points="16.6,19.2 13.1,22 16.6,24.7 		"/>
		<polyline class="st0" points="23.5,19.2 27,22 23.5,24.7 		"/>
		<line class="st0" x1="21.3" y1="17.2" x2="18.7" y2="26.7"/>
		<path class="st0" d="M31.4,30.1H8.6c-0.5,0-1-0.4-1-1V10.9c0-0.5,0.4-1,1-1h22.8c0.5,0,1,0.4,1,1v18.2
			C32.4,29.6,31.9,30.1,31.4,30.1z"/>
		<line class="st0" x1="7.6" y1="13.9" x2="32.3" y2="13.9"/>
		<circle class="st1" cx="10.8" cy="11.9" r="0.6"/>
		<circle class="st1" cx="13.1" cy="11.9" r="0.6"/>
		<circle class="st1" cx="15.3" cy="11.9" r="0.6"/>
	</g>
</g>
</svg>
