<?xml version="1.0" encoding="utf-8"?>
<!-- Generator: Adobe Illustrator 27.4.1, SVG Export Plug-In . SVG Version: 6.00 Build 0)  -->
<svg version="1.1" id="Layer_1" xmlns="http://www.w3.org/2000/svg" xmlns:xlink="http://www.w3.org/1999/xlink" x="0px" y="0px"
	 viewBox="0 0 30 30" style="enable-background:new 0 0 30 30;" xml:space="preserve">
<style type="text/css">
	.st0{fill-rule:evenodd;clip-rule:evenodd;fill:#3F393B;}
</style>
<path class="st0" d="M15,5C9.5,5,5,9.5,5,15c0,5.5,4.5,10,10,10c5.5,0,10-4.5,10-10C25,9.5,20.5,5,15,5z M3,15C3,8.4,8.4,3,15,3
	s12,5.4,12,12s-5.4,12-12,12S3,21.6,3,15z"/>
<path class="st0" d="M12.6,25.7c-0.1-0.1-0.1-1.2,0-3.3c-1,0-1.7,0-2-0.2c-0.4-0.3-0.8-1.1-1.2-1.7c-0.4-0.6-1.2-0.7-1.5-0.8
	c-0.3-0.1-0.4-0.7,0.9-0.3c1.3,0.4,1.4,1.5,1.8,1.8c0.4,0.3,1.4,0.1,1.8-0.1c0.4-0.2,0.4-1,0.5-1.3c0.1-0.3-0.3-0.3-0.3-0.3
	c-0.4,0-2.7-0.5-3.4-2.7c-0.6-2.2,0.2-3.7,0.6-4.3c0.3-0.4,0.3-1.3-0.1-2.7c1.2-0.2,2.2,0.2,2.9,1.2c0,0,0.9-0.5,2.3-0.5
	c1.4,0,1.9,0.4,2.3,0.5c0.4,0.1,0.7-1.6,3-1.2c-0.5,1-0.9,2.2-0.6,2.7c0.3,0.5,1.5,2.1,0.8,4.3c-0.5,1.5-1.5,2.4-3,2.7
	c-0.2,0.1-0.3,0.1-0.3,0.3c0,0.2,0.2,0.2,0.6,1c0.2,0.6,0.2,2.2,0,4.8c-0.5,0.1-0.8,0.2-1.1,0.2c-0.5,0.1-1,0.1-1.5,0.1
	c-0.5,0-0.7,0-1.4-0.1C13.5,25.9,13,25.8,12.6,25.7z"/>
</svg>
