<?xml version="1.0" encoding="utf-8"?>
<!-- Generator: Adobe Illustrator 27.7.0, SVG Export Plug-In . SVG Version: 6.00 Build 0)  -->
<svg version="1.1" id="Layer_2_00000041973733961969210060000004528649778027822483_"
	 xmlns="http://www.w3.org/2000/svg" xmlns:xlink="http://www.w3.org/1999/xlink" x="0px" y="0px" viewBox="0 0 40.5 40.5"
	 style="enable-background:new 0 0 40.5 40.5;" xml:space="preserve">
<style type="text/css">
	.st0{fill:none;}
	.st1{fill:#E18009;}
	.st2{display:none;}
</style>
<g id="Layer_1-2">
	<g>
		<rect x="0.2" y="0.2" class="st0" width="40" height="40"/>
		<g>
			<path class="st1" d="M35.2,14.4h-30c-0.6,0-1-0.4-1-1l0,0c0-0.6,0.4-1,1-1h30c0.6,0,1,0.4,1,1l0,0C36.2,13.9,35.8,14.4,35.2,14.4
				z"/>
			<path class="st1" d="M35.2,21.2h-30c-0.6,0-1-0.4-1-1l0,0c0-0.6,0.4-1,1-1h30c0.6,0,1,0.4,1,1l0,0C36.2,20.8,35.8,21.2,35.2,21.2
				z"/>
			<path class="st1" d="M35.2,28.1h-30c-0.6,0-1-0.4-1-1l0,0c0-0.6,0.4-1,1-1h30c0.6,0,1,0.4,1,1l0,0C36.2,27.8,35.8,28.1,35.2,28.1
				z"/>
		</g>
	</g>
</g>
<image style="display:none;overflow:visible;enable-background:new    ;" width="352" height="348" xlink:href="../../../../../../../Desktop/Screenshot 2023-07-14 at 15.47.42.png"  transform="matrix(0.1221 0 0 0.1221 45.0482 -10.6498)">
</image>
<g id="AhFnRQ_00000114795677538422025080000012810382521275145897_" class="st2">
	
		<image style="display:inline;overflow:visible;enable-background:new    ;" width="1069" height="926" id="AhFnRQ" xlink:href="345711D97D39A4EC.png"  transform="matrix(4.486384e-02 0 0 4.486384e-02 75.2558 4.6813)">
	</image>
</g>
</svg>
