<?xml version="1.0" encoding="utf-8"?>
<!-- Generator: Adobe Illustrator 27.6.1, SVG Export Plug-In . SVG Version: 6.00 Build 0)  -->
<svg version="1.1" id="Layer_2_00000134248247748420074550000002645186673385801877_"
	 xmlns="http://www.w3.org/2000/svg" xmlns:xlink="http://www.w3.org/1999/xlink" x="0px" y="0px" viewBox="0 0 40.5 40.5"
	 style="enable-background:new 0 0 40.5 40.5;" xml:space="preserve">
<style type="text/css">
	.st0{fill:none;stroke:#E18009;stroke-linecap:round;stroke-linejoin:round;}
	.st1{fill:none;}
</style>
<g id="Layer_1-2">
	<g>
		<g>
			<circle class="st0" cx="7.8" cy="18.4" r="3"/>
			<path class="st0" d="M11.2,23.9c-0.9-0.6-1.9-0.9-3-0.9l0,0c-3.1,0-5.7,2.6-5.7,5.7l0,0h6.1"/>
			<circle class="st0" cx="28.4" cy="18.4" r="3"/>
			<path class="st0" d="M24.8,23.9c0.9-0.6,1.9-0.9,3-0.9l0,0c3.1,0,5.7,2.6,5.7,5.7l0,0h-6.1"/>
			<g>
				<circle class="st0" cx="17.9" cy="17.7" r="4.4"/>
				<path class="st0" d="M18.3,23.9L18.3,23.9c4.4,0,8,3.6,8,8v0.7H9.6C9.6,27.8,13.5,23.9,18.3,23.9L18.3,23.9z"/>
			</g>
		</g>
		<rect x="0.2" y="0.2" class="st1" width="40" height="40"/>
	</g>
</g>
</svg>
