<?xml version="1.0" encoding="utf-8"?>
<!-- Generator: Adobe Illustrator 27.6.1, SVG Export Plug-In . SVG Version: 6.00 Build 0)  -->
<svg version="1.1" id="Layer_2_00000041973733961969210060000004528649778027822483_"
	 xmlns="http://www.w3.org/2000/svg" xmlns:xlink="http://www.w3.org/1999/xlink" x="0px" y="0px" viewBox="0 0 40.5 40.5"
	 style="enable-background:new 0 0 40.5 40.5;" xml:space="preserve">
<style type="text/css">
	.st0{fill:none;stroke:#E18009;stroke-linecap:round;stroke-linejoin:round;}
	.st1{fill:#E18009;}
	.st2{fill:none;}
</style>
<g id="Layer_1-2">
	<g>
		<g>
			<polyline class="st0" points="13.5,23.3 9.7,26.3 13.5,29.3 			"/>
			<polyline class="st0" points="21,23.3 24.9,26.3 21,29.3 			"/>
			<line class="st0" x1="18.6" y1="21.1" x2="15.8" y2="31.5"/>
			<path class="st0" d="M4.8,13.2h24.9c0.6,0,1,0.5,1,1v19.9c0,0.6-0.5,1-1,1H4.8c-0.6,0-1-0.5-1-1V14.2C3.8,13.6,4.2,13.2,4.8,13.2
				z"/>
			<line class="st0" x1="3.8" y1="17.5" x2="30.7" y2="17.5"/>
			<circle class="st1" cx="7.2" cy="15.3" r="0.6"/>
			<circle class="st1" cx="9.7" cy="15.3" r="0.6"/>
			<circle class="st1" cx="12.2" cy="15.3" r="0.6"/>
		</g>
		<rect x="0.2" y="0.2" class="st2" width="40" height="40"/>
	</g>
</g>
</svg>
