<?xml version="1.0" encoding="utf-8"?>
<!-- Generator: Adobe Illustrator 27.6.1, SVG Export Plug-In . SVG Version: 6.00 Build 0)  -->
<svg version="1.1" id="Layer_2_00000049208027212950701530000011298770234146975158_"
	 xmlns="http://www.w3.org/2000/svg" xmlns:xlink="http://www.w3.org/1999/xlink" x="0px" y="0px" viewBox="0 0 40.5 40.5"
	 style="enable-background:new 0 0 40.5 40.5;" xml:space="preserve">
<style type="text/css">
	.st0{fill:none;stroke:#E18009;stroke-linecap:round;stroke-linejoin:round;}
	.st1{fill:#E18009;}
	.st2{fill:none;}
</style>
<g id="Layer_1-2">
	<g>
		<g>
			<path class="st0" d="M28.6,33.9H17.2l-8,5.4v-5.4H5.8c-1.2,0-2.1-1-2.1-2.1V14.4c0-1.2,1-2.1,2.1-2.1h22.7c1.2,0,2.1,1,2.1,2.1
				v17.3C30.8,32.8,29.9,33.9,28.6,33.9z"/>
			<g>
				<path class="st1" d="M10.4,27.7v-8.6H16v1.9h-3.2v1.5h2.8v1.9h-2.8v1.6h3.4v1.9C16.2,27.7,10.4,27.7,10.4,27.7z"/>
				<path class="st1" d="M17,27.7v-8.6h2.3l1.9,3.8l0.8,2l0,0c0-0.5-0.1-1-0.2-1.6c-0.1-0.6-0.1-1.1-0.1-1.7v-2.5h2.2v8.6h-2.3
					l-1.9-3.8l-0.8-2l0,0c0,0.5,0.1,1,0.2,1.7c0.1,0.6,0.1,1.1,0.1,1.7v2.5C19.2,27.7,17,27.7,17,27.7z"/>
			</g>
		</g>
		<rect x="0.2" y="0.2" class="st2" width="40" height="40"/>
	</g>
</g>
</svg>
