<?xml version="1.0" encoding="utf-8"?>
<!-- Generator: Adobe Illustrator 27.7.0, SVG Export Plug-In . SVG Version: 6.00 Build 0)  -->
<svg version="1.1" id="Layer_2_00000041973733961969210060000004528649778027822483_"
	 xmlns="http://www.w3.org/2000/svg" xmlns:xlink="http://www.w3.org/1999/xlink" x="0px" y="0px" viewBox="0 0 40.5 40.5"
	 style="enable-background:new 0 0 40.5 40.5;" xml:space="preserve">
<style type="text/css">
	.st0{fill:none;}
	.st1{fill:none;stroke:#E18009;stroke-linecap:round;stroke-linejoin:round;}
	.st2{display:none;}
</style>
<g id="Layer_1-2">
	<g>
		<rect x="0.2" y="0.2" class="st0" width="40" height="40"/>
		<g>
			<rect x="7.5" y="7.8" class="st1" width="25.3" height="15.4"/>
			<g>
				<polyline class="st1" points="15.9,18.1 13.6,15.7 15.9,13.3 				"/>
				<polyline class="st1" points="24.1,18.1 26.5,15.7 24.1,13.3 				"/>
				<line class="st1" x1="18.6" y1="19.6" x2="21.4" y2="11.8"/>
			</g>
			<path class="st1" d="M32.7,23.3L7.5,23.5l-2.3,6c-0.6,1.5,0.5,3.1,2.1,3.1h26c1.6,0,2.7-1.7,2.1-3.1L32.7,23.3z"/>
			<line class="st1" x1="5.1" y1="30.4" x2="35.5" y2="30.4"/>
			<line class="st1" x1="17.3" y1="32.6" x2="17.3" y2="30.5"/>
			<line class="st1" x1="22.9" y1="32.6" x2="22.9" y2="30.5"/>
			<polyline class="st1" points="11.6,27.6 32.3,27.6 31.4,25.6 8.6,25.6 7.8,27.6 			"/>
		</g>
	</g>
</g>
<image style="display:none;overflow:visible;" width="352" height="348" xlink:href="../../../../../../../Desktop/Screenshot 2023-07-14 at 15.47.42.png"  transform="matrix(0.1221 0 0 0.1221 45.0482 -10.6498)">
</image>
<g id="AhFnRQ_00000114795677538422025080000012810382521275145897_" class="st2">
	
		<image style="display:inline;overflow:visible;" width="1088" height="928" id="AhFnRQ" xlink:href="345711D97D39A4EC.png"  transform="matrix(4.437089e-02 0 0 4.437089e-02 75.0978 4.8652)">
	</image>
</g>
</svg>
