<?xml version="1.0" encoding="utf-8"?>
<!-- Generator: Adobe Illustrator 27.7.0, SVG Export Plug-In . SVG Version: 6.00 Build 0)  -->
<svg version="1.1" id="Layer_2_00000041973733961969210060000004528649778027822483_"
	 xmlns="http://www.w3.org/2000/svg" xmlns:xlink="http://www.w3.org/1999/xlink" x="0px" y="0px" viewBox="0 0 40.5 40.5"
	 style="enable-background:new 0 0 40.5 40.5;" xml:space="preserve">
<style type="text/css">
	.st0{fill:#E18009;}
	.st1{fill:none;stroke:#E18009;stroke-linecap:round;stroke-linejoin:round;}
	.st2{fill:none;}
</style>
<g id="Layer_1-2">
	<g>
		<g>
			<polygon class="st0" points="16.7,26 4.2,31 20.2,37.3 36.2,31 23.5,26 20.2,31 			"/>
			<path class="st1" d="M20.2,31.3L28.4,17c3.3-6.2-1.6-12.8-8.3-12.8S8.7,10.9,11.9,17C12.1,16.9,20.2,31.3,20.2,31.3z"/>
			<path class="st1" d="M20.2,16.4c2.1,0,3.8-1.7,3.8-3.8s-1.7-3.8-3.8-3.8s-3.7,1.9-3.7,4S18.1,16.4,20.2,16.4z"/>
		</g>
		<rect x="0.2" y="0.2" class="st2" width="40" height="40"/>
	</g>
</g>
<image style="display:none;overflow:visible;enable-background:new    ;" width="352" height="348" xlink:href="../../../../../../../Desktop/Screenshot 2023-07-14 at 15.47.42.png"  transform="matrix(0.1221 0 0 0.1221 45.0482 -10.6498)">
</image>
</svg>
