<?xml version="1.0" encoding="utf-8"?>
<!-- Generator: Adobe Illustrator 27.7.0, SVG Export Plug-In . SVG Version: 6.00 Build 0)  -->
<svg version="1.1" id="Layer_2_00000041973733961969210060000004528649778027822483_"
	 xmlns="http://www.w3.org/2000/svg" xmlns:xlink="http://www.w3.org/1999/xlink" x="0px" y="0px" viewBox="0 0 40.5 40.5"
	 style="enable-background:new 0 0 40.5 40.5;" xml:space="preserve">
<style type="text/css">
	.st0{fill:none;stroke:#E18009;stroke-linecap:round;stroke-linejoin:round;}
	.st1{fill:none;}
</style>
<g id="Layer_1-2">
	<g>
		<g>
			<g>
				<path class="st0" d="M11.1,5.8l-1,1.8c-0.4,0.8,0.2,1.6,1,1.6c0.8,0,1.4-0.8,1-1.6C12.2,7.6,11.1,5.8,11.1,5.8z"/>
				<path class="st0" d="M12.1,17.3h-1.9v-7.2c0-0.5,0.4-0.9,0.9-0.9h0c0.5,0,0.9,0.4,0.9,0.9V17.3z"/>
				<line class="st0" x1="10.2" y1="12.4" x2="11.9" y2="11.4"/>
				<line class="st0" x1="10.2" y1="15.2" x2="11.9" y2="14.2"/>
			</g>
			<g>
				<path class="st0" d="M19.8,5.8l-1,1.8c-0.4,0.8,0.2,1.6,1,1.6c0.8,0,1.4-0.8,1-1.6C20.8,7.6,19.8,5.8,19.8,5.8z"/>
				<path class="st0" d="M20.7,17.3h-1.9v-7.2c0-0.5,0.4-0.9,0.9-0.9h0c0.5,0,0.9,0.4,0.9,0.9V17.3z"/>
				<line class="st0" x1="18.8" y1="12.4" x2="20.6" y2="11.4"/>
				<line class="st0" x1="18.8" y1="15.2" x2="20.6" y2="14.2"/>
			</g>
			<g>
				<path class="st0" d="M28.5,5.8l-1,1.8c-0.4,0.8,0.2,1.6,1,1.6s1.4-0.8,1-1.6C29.5,7.6,28.5,5.8,28.5,5.8z"/>
				<path class="st0" d="M29.4,17.3h-1.9v-7.2c0-0.5,0.4-0.9,0.9-0.9h0c0.5,0,0.9,0.4,0.9,0.9V17.3z"/>
				<line class="st0" x1="27.5" y1="12.4" x2="29.2" y2="11.4"/>
				<line class="st0" x1="27.5" y1="15.2" x2="29.2" y2="14.2"/>
			</g>
		</g>
		<path class="st0" d="M32.8,31.9h-26V19c0-0.9,0.7-1.7,1.7-1.7h22.7c0.9,0,1.7,0.7,1.7,1.7V31.9z"/>
		<path class="st0" d="M34.3,33.5H4.9c-0.4,0-0.8-0.3-0.8-0.8l0,0c0-0.4,0.3-0.8,0.8-0.8h29.4c0.4,0,0.8,0.3,0.8,0.8l0,0
			C35.1,33.1,34.7,33.5,34.3,33.5z"/>
		<g>
			<path class="st0" d="M32.8,24.3c0,2-1.2,2.6-2.6,2.6s-2.6-0.8-2.6-2.6c0-1.7-1.2-2.6-2.6-2.6c-1.4,0-2.6,1.1-2.6,2.6
				c0,1.4-1.1,2.6-2.6,2.6s-2.6-0.9-2.6-2.6c0-1.7-1.2-2.6-2.6-2.6S12,22.5,12,24.3c0,1.8-1.2,2.6-2.6,2.6S6.8,26,6.8,24.3"/>
		</g>
		<rect x="0.2" y="0.2" class="st1" width="40" height="40"/>
	</g>
</g>
<image style="display:none;overflow:visible;" width="352" height="348" xlink:href="../../../../../../../Desktop/Screenshot 2023-07-14 at 15.47.42.png"  transform="matrix(0.1221 0 0 0.1221 45.0482 -10.6498)">
</image>
</svg>
