<?xml version="1.0" encoding="utf-8"?>
<!-- Generator: Adobe Illustrator 27.7.0, SVG Export Plug-In . SVG Version: 6.00 Build 0)  -->
<svg version="1.1" id="Layer_2_00000041973733961969210060000004528649778027822483_"
	 xmlns="http://www.w3.org/2000/svg" xmlns:xlink="http://www.w3.org/1999/xlink" x="0px" y="0px" viewBox="0 0 40.5 40.5"
	 style="enable-background:new 0 0 40.5 40.5;" xml:space="preserve">
<style type="text/css">
	.st0{fill:none;stroke:#E18009;stroke-linecap:round;stroke-linejoin:round;}
	.st1{fill:none;}
</style>
<g id="Layer_1-2">
	<g>
		<g>
			<g>
				<path class="st0" d="M20.2,5.8l-1,1.8c-0.4,0.8,0.2,1.6,1,1.6s1.4-0.8,1-1.6C21.2,7.6,20.2,5.8,20.2,5.8z"/>
				<path class="st0" d="M19.3,17.3v-7.2c0-0.5,0.4-0.9,0.9-0.9l0,0c0.5,0,0.9,0.4,0.9,0.9v7.2H19.3z"/>
				<line class="st0" x1="19.4" y1="12.5" x2="21" y2="11.5"/>
				<line class="st0" x1="19.4" y1="15.1" x2="21" y2="14.1"/>
			</g>
			<g>
				<path class="st0" d="M12.3,5.8l-1,1.8c-0.4,0.8,0.2,1.6,1,1.6s1.4-0.8,1-1.6C13.3,7.6,12.3,5.8,12.3,5.8z"/>
				<path class="st0" d="M11.4,17.3v-7.2c0-0.5,0.4-0.9,0.9-0.9l0,0c0.5,0,0.9,0.4,0.9,0.9v7.2H11.4z"/>
				<line class="st0" x1="11.4" y1="12.5" x2="13.1" y2="11.5"/>
				<line class="st0" x1="11.4" y1="15.1" x2="13.1" y2="14.1"/>
			</g>
			<g>
				<path class="st0" d="M28.2,5.8l-1,1.8c-0.4,0.8,0.2,1.6,1,1.6s1.4-0.8,1-1.6C29.2,7.6,28.2,5.8,28.2,5.8z"/>
				<path class="st0" d="M27.2,17.3v-7.2c0-0.5,0.4-0.9,0.9-0.9l0,0c0.5,0,0.9,0.4,0.9,0.9v7.2H27.2z"/>
				<line class="st0" x1="27.3" y1="12.5" x2="28.9" y2="11.5"/>
				<line class="st0" x1="27.3" y1="15.1" x2="28.9" y2="14.1"/>
			</g>
		</g>
		<path class="st0" d="M32.8,33.9H6.9V19c0-0.9,0.7-1.7,1.7-1.7h22.6c0.9,0,1.7,0.7,1.7,1.7L32.8,33.9L32.8,33.9z"/>
		<g>
			<path class="st0" d="M32.8,24.2c0,1.9-1.2,2.5-2.6,2.5s-2.6-0.8-2.6-2.5c0-1.6-1.2-2.5-2.6-2.5s-2.6,1.1-2.6,2.5
				c0,1.3-1.1,2.5-2.6,2.5s-2.6-0.9-2.6-2.5s-1.2-2.5-2.6-2.5c-1.4,0-2.6,0.8-2.6,2.5s-1.2,2.5-2.6,2.5c-1.4,0-2.6-0.9-2.6-2.5"/>
		</g>
		<rect x="0.2" y="0.2" class="st1" width="40" height="40"/>
	</g>
</g>
<image style="display:none;overflow:visible;enable-background:new    ;" width="352" height="348" xlink:href="../../../../../../../Desktop/Screenshot 2023-07-14 at 15.47.42.png"  transform="matrix(0.1221 0 0 0.1221 45.0482 -10.6498)">
</image>
<line class="st0" x1="3.9" y1="33.9" x2="35.9" y2="33.9"/>
</svg>
