<?xml version="1.0" encoding="utf-8"?>
<!-- Generator: Adobe Illustrator 27.7.0, SVG Export Plug-In . SVG Version: 6.00 Build 0)  -->
<svg version="1.1" id="Layer_2_00000041973733961969210060000004528649778027822483_"
	 xmlns="http://www.w3.org/2000/svg" xmlns:xlink="http://www.w3.org/1999/xlink" x="0px" y="0px" viewBox="0 0 40.5 40.5"
	 style="enable-background:new 0 0 40.5 40.5;" xml:space="preserve">
<style type="text/css">
	.st0{fill:none;stroke:#E18009;stroke-linecap:round;stroke-linejoin:round;}
	.st1{fill:none;}
</style>
<g id="Layer_1-2">
	<g>
		<g>
			<polyline class="st0" points="17,24.3 5.5,28.9 20.2,34.7 35,28.9 23.2,24.3 			"/>
			<path class="st0" d="M20.2,29.2l7.1-12.3c2.8-5.3-1.4-11-7.1-11s-9.9,5.7-7.1,11C13.2,16.8,20.2,29.2,20.2,29.2z"/>
			<path class="st0" d="M20.2,16.4c1.8,0,3.3-1.5,3.3-3.3s-1.5-3.3-3.3-3.3S17,11.4,17,13.2S18.4,16.4,20.2,16.4z"/>
		</g>
		<rect x="0.2" y="0.2" class="st1" width="40" height="40"/>
	</g>
</g>
<image style="display:none;overflow:visible;" width="352" height="348" xlink:href="../../../../../../../Desktop/Screenshot 2023-07-14 at 15.47.42.png"  transform="matrix(0.1221 0 0 0.1221 45.0482 -10.6498)">
</image>
</svg>
