<svg id="Like" xmlns="http://www.w3.org/2000/svg" width="32" height="32" viewBox="0 0 32 32">
  <g id="Caja" fill="none" stroke="rgba(255,255,255,0)" stroke-width="1">
    <rect width="32" height="32" stroke="none"/>
    <rect x="0.5" y="0.5" width="31" height="31" fill="none"/>
  </g>
  <path id="corazon" d="M85.53,94.414a1.426,1.426,0,0,1-2.064,0c-2.641-2.732-9.578-9.923-11.556-12.125a7.648,7.648,0,0,1,.627-10.752c3.521-3.129,7.494-.767,9.115.8,1.72,1.659,2.845,2.887,2.845,2.887s1.125-1.228,2.845-2.887c1.621-1.564,5.595-3.925,9.115-.8a7.647,7.647,0,0,1,.627,10.752C95.108,84.491,88.171,91.682,85.53,94.414Z" transform="translate(-67.998 -65.499)" fill="#e23737" stroke="#ccc" stroke-miterlimit="10" stroke-width="1"/>
</svg>
