<?xml version="1.0" encoding="utf-8"?>
<!-- Generator: Adobe Illustrator 27.4.1, SVG Export Plug-In . SVG Version: 6.00 Build 0)  -->
<svg version="1.1" id="Layer_1" xmlns="http://www.w3.org/2000/svg" xmlns:xlink="http://www.w3.org/1999/xlink" x="0px" y="0px"
	 viewBox="0 0 40 40" style="enable-background:new 0 0 40 40;" xml:space="preserve">
<style type="text/css">
	.st0{fill:#3F393B;}
</style>
<g id="XMLID_801_">
	<path id="XMLID_802_" class="st0" d="M14.7,15.4h-4c-0.2,0-0.3,0.1-0.3,0.3v12.9c0,0.2,0.1,0.3,0.3,0.3h4c0.2,0,0.3-0.1,0.3-0.3
		V15.8C15,15.6,14.8,15.4,14.7,15.4z"/>
	<path id="XMLID_803_" class="st0" d="M12.6,9c-1.5,0-2.6,1.2-2.6,2.6c0,1.5,1.2,2.6,2.6,2.6c1.5,0,2.6-1.2,2.6-2.6
		C15.3,10.2,14.1,9,12.6,9z"/>
	<path id="XMLID_804_" class="st0" d="M24.9,15.1c-1.6,0-2.8,0.7-3.5,1.5v-0.8c0-0.2-0.1-0.3-0.3-0.3h-3.8c-0.2,0-0.3,0.1-0.3,0.3
		v12.9c0,0.2,0.1,0.3,0.3,0.3h4c0.2,0,0.3-0.1,0.3-0.3v-6.4c0-2.2,0.6-3,2.1-3c1.6,0,1.8,1.3,1.8,3.1v6.3c0,0.2,0.1,0.3,0.3,0.3h4
		c0.2,0,0.3-0.1,0.3-0.3v-7.1C30,18.4,29.4,15.1,24.9,15.1z"/>
</g>
</svg>
