<?xml version="1.0" encoding="utf-8"?>
<!-- Generator: Adobe Illustrator 27.4.1, SVG Export Plug-In . SVG Version: 6.00 Build 0)  -->
<svg version="1.1" id="Layer_1" xmlns="http://www.w3.org/2000/svg" xmlns:xlink="http://www.w3.org/1999/xlink" x="0px" y="0px"
	 viewBox="0 0 40 40" style="enable-background:new 0 0 40 40;" xml:space="preserve">
<style type="text/css">
	.st0{fill:#3F393B;}
	.st1{fill:none;stroke:#3F393B;stroke-width:2;stroke-miterlimit:10;}
	.st2{fill:none;}
</style>
<g>
	<g>
		<path class="st0" d="M31.7,14.1c0.1,0,0.2,0.1,0.2,0.2v14.2c0,0.1-0.1,0.2-0.2,0.2H8.2c-0.1,0-0.2-0.1-0.2-0.2V14.3
			c0-0.1,0.1-0.2,0.2-0.2H31.7 M31.7,12.1H8.2c-1.2,0-2.2,1-2.2,2.2v14.2c0,1.2,1,2.2,2.2,2.2h23.6c1.2,0,2.2-1,2.2-2.2V14.3
			C33.9,13.1,33,12.1,31.7,12.1L31.7,12.1z"/>
	</g>
	<path class="st1" d="M6.8,13.1l11.8,8.7c0.8,0.6,1.9,0.6,2.6,0l11.8-8.7"/>
	<line class="st1" x1="7.3" y1="29.6" x2="16.3" y2="19.8"/>
	<line class="st1" x1="32.9" y1="29.6" x2="23.8" y2="19.8"/>
</g>
<rect class="st2" width="40" height="40"/>
</svg>
